# xmcd
#
# Track frame offsets: 
#        150
#        11044
#        30322
#        41863
#        55701
#        67039
#        78975
#        90462
#        103314
#        113661
#        130941
#        142322
#        153593
#        165969
#        177849
#        190488
#        202206
#        216165
#        229117
#        239034
#        252222
#        265176
#        275124
#
# Disc length: 3807 seconds
#
# Revision: 1
# Processed by: cddbd v1.5.2PL0 Copyright (c) Steve Scherf et al.
# Submitted via: ExactAudioCopyFreeDBPlugin 1.0
#
DISCID=570edd17
DTITLE=Various Artist - The Heeey Baby Days of Beach Music [companion
DTITLE=CDs to book]
DYEAR=2008
DGENRE=Rhythm and Blues
TTITLE0=The Swingin' Medallions - Hey Hey Baby
TTITLE1=Ron Moody - Timeless
TTITLE2=Cliff Ellis (The Villagers) - Charlena
TTITLE3=King David and The Slaves - Does Your Mama Know About Me
TTITLE4=The Swinging Medallions - Double Shot of My Baby's Love
TTITLE5=Mouse and The Boys - Dancin' to the Beat
TTITLE6=The Sensational Epics - Be Young Be Foolish and Be Happy
TTITLE7=The Candymen - See Saw
TTITLE8=Wilber Waters and The James Gang - Twenty Four Hours of Loneline
TTITLE8=ss
TTITLE9=The Jesters - I Dig You Baby
TTITLE10=Pieces of Eight - Lonely
TTITLE11=The Box Tops - Cry Like a Baby
TTITLE12=The In-Men - I'm Gonna Miss You
TTITLE13=The O'Kaysions - Girl Watched
TTITLE14=The Rubber Band - Let Love Come Between Us
TTITLE15=Mark V - Ain't Nothing You Can Do (ft Dan Penn)
TTITLE16=The Del-Rays - Ya Ya
TTITLE17=The Viscounts - Ain't to Proud to Beg
TTITLE18=The Tip Tops - Whose Little Girl Are You
TTITLE19=The (Georgia) Prophets - I Got the Fever
TTITLE20=Sammy O'Banion and The Features - Mistaken Identity
TTITLE21=Oxford Nights - I'm Such a Lonely One
TTITLE22=The Duprees (Second Nature) - Still A Lot of Love
EXTD=
EXTT0=
EXTT1=
EXTT2=
EXTT3=
EXTT4=
EXTT5=
EXTT6=
EXTT7=
EXTT8=
EXTT9=
EXTT10=
EXTT11=
EXTT12=
EXTT13=
EXTT14=
EXTT15=
EXTT16=
EXTT17=
EXTT18=
EXTT19=
EXTT20=
EXTT21=
EXTT22=
PLAYORDER=
